/* XPM */
static char *kusacoin64[] = {
/* columns rows colors chars-per-pixel */
"64 64 237 2 ",
"   c #1C2B25",
".  c #1A3626",
"X  c #212A26",
"o  c #203528",
"O  c #086D1F",
"+  c #0B4925",
"@  c #16482A",
"#  c #06582A",
"$  c #195927",
"%  c #095C31",
"&  c #224A28",
"*  c #27552A",
"=  c #365A2B",
"-  c #00652B",
";  c #046A2B",
":  c #0A6E2A",
">  c #056528",
",  c #0D712A",
"<  c #13742B",
"1  c #1B7B2D",
"2  c #18762B",
"3  c #046C33",
"4  c #0B6D33",
"5  c #066433",
"6  c #0B7136",
"7  c #147433",
"8  c #197733",
"9  c #1D7B33",
"0  c #17783B",
"q  c #136B31",
"w  c #247D2C",
"e  c #2B7D2C",
"r  c #26702D",
"t  c #34752E",
"y  c #237D33",
"u  c #26773B",
"i  c #326D32",
"p  c #4A792C",
"a  c #56782E",
"s  c #607D2B",
"d  c #405E29",
"f  c #347444",
"g  c #397847",
"h  c #2B7749",
"j  c #157840",
"k  c #427959",
"l  c #24812C",
"z  c #2C842B",
"x  c #2C872A",
"c  c #3C8A2C",
"v  c #36882A",
"b  c #3B922D",
"n  c #258132",
"m  c #2B8333",
"M  c #28803B",
"N  c #348A33",
"B  c #3B8E33",
"V  c #328634",
"C  c #3F9133",
"Z  c #3A913E",
"A  c #428D2C",
"S  c #48842E",
"D  c #57892C",
"F  c #41932C",
"G  c #4C942D",
"H  c #4C9B2C",
"J  c #479728",
"K  c #539B2D",
"L  c #5B9C2D",
"P  c #51992A",
"I  c #5A8134",
"U  c #449433",
"Y  c #4C9933",
"T  c #4A9735",
"R  c #529D33",
"E  c #589B38",
"W  c #468B3E",
"Q  c #6A982C",
"!  c #759C2B",
"~  c #6A8C33",
"^  c #649D3C",
"/  c #6C8F33",
"(  c #5CA42B",
")  c #58A52A",
"_  c #5CA433",
"`  c #58A135",
"'  c #64A42D",
"]  c #63AB2C",
"[  c #6BAE2C",
"{  c #65AC25",
"}  c #75A92C",
"|  c #6CB129",
" . c #74B52C",
".. c #7BBB2C",
"X. c #76B828",
"o. c #61A633",
"O. c #65AA33",
"+. c #6BAE33",
"@. c #6BA737",
"#. c #7CAA3A",
"$. c #78A835",
"%. c #6EB033",
"&. c #73B333",
"*. c #79B733",
"=. c #7CBA33",
"-. c #79B33A",
";. c #2B8349",
":. c #3B8846",
">. c #358A58",
",. c #3B904C",
"<. c #3C8E63",
"1. c #58954C",
"2. c #489558",
"3. c #5C9859",
"4. c #498D4D",
"5. c #6E874A",
"6. c #739448",
"7. c #6A9959",
"8. c #719556",
"9. c #5DA34D",
"0. c #79B445",
"q. c #7AA953",
"w. c #71A850",
"e. c #558D68",
"r. c #5B9B66",
"t. c #5C9E7A",
"y. c #4A9564",
"u. c #759562",
"i. c #7C9A62",
"p. c #7C9F6D",
"a. c #648674",
"s. c #6A8A7A",
"d. c #739C75",
"f. c #6D8F6F",
"g. c #6BA664",
"h. c #77A865",
"j. c #70A479",
"k. c #82BD2C",
"l. c #85BA2B",
"z. c #83AE3A",
"x. c #83BD32",
"c. c #88BA33",
"v. c #8BC42C",
"b. c #87C42C",
"n. c #87C133",
"m. c #8BC433",
"M. c #8FC638",
"N. c #91C632",
"B. c #94CB32",
"V. c #97CC39",
"C. c #9CD433",
"Z. c #9AD531",
"A. c #97D12C",
"S. c #A2DA34",
"D. c #8BB759",
"F. c #84B14F",
"G. c #839577",
"H. c #808B7C",
"J. c #89AB6B",
"K. c #87A777",
"L. c #88B679",
"P. c #9BBA77",
"I. c #93B56F",
"U. c #92C553",
"Y. c #99C867",
"T. c #96C676",
"R. c #A9D277",
"E. c #789A81",
"W. c #7AA586",
"Q. c #75AD8C",
"!. c #849085",
"~. c #8DAA8C",
"^. c #93AC8B",
"/. c #85B584",
"(. c #98B486",
"). c #86A896",
"_. c #96A79D",
"`. c #9AAA9D",
"'. c #96A99A",
"]. c #8BB596",
"[. c #9BB596",
"{. c #A4B79C",
"}. c #A0BA88",
"|. c #9BA7A4",
" X c #9BB7A5",
".X c #A3ACAA",
"XX c #A6B8A8",
"oX c #ADB7BA",
"OX c #B1BABA",
"+X c #989FA3",
"@X c #97C298",
"#X c #98C48F",
"$X c #B7D898",
"%X c #A8CF8E",
"&X c #99C3A9",
"*X c #9CC4B2",
"=X c #B6D6AA",
"-X c #A6C5B2",
";X c #B5C5B9",
":X c #B4D2B9",
">X c #AACAAA",
",X c #C9E2B4",
"<X c #C6DFB9",
"1X c #B7BDC7",
"2X c #BCC4C7",
"3X c #BCCAC3",
"4X c #B6C5C0",
"5X c #BAD6C8",
"6X c #C0CAC9",
"7X c #C2DCCA",
"8X c #C4CBD1",
"9X c #CCD2D5",
"0X c #CBDDD4",
"qX c #C9D6D6",
"wX c #D1D7DB",
"eX c #CFE3DB",
"rX c #D5E7DA",
"tX c #CFE4C9",
"yX c #D6DDE3",
"uX c #D9DDE4",
"iX c #DEE5ED",
"pX c #DAE7E4",
"aX c #DDE0F0",
"sX c #E1ECEC",
"dX c #E0E7EF",
"fX c #E5F2EC",
"gX c #E4EBF2",
"hX c #E6ECF5",
"jX c #E7F2F2",
"kX c #E9F4F4",
"lX c #EDF6FA",
"zX c #EEF8FA",
"xX c #F0F6FC",
"cX c #F2F9FD",
"vX c #F9FDFF",
"bX c #F0EFF6",
"nX c None",
/* pixels */
"nXnXnXnXnXnXnXnXnXnXnXnXnXnXnXnXnXnXnXnXnXnXnXnXnXnXnXnXnXnXnXnXnXnXnXnXnXnXnXnXnXnXnXnXnXnXnXnXnXnXnXnXnXnXnXnXnXnXnXnXnXnXnXnX",
"nXnXnXnXnXnXnXnXnXnXnXnXnXnXnXnXnXnXnXnXnXnXnXnXnXnXnXnXnXnXI I I a a nXnXnXnXnXnXnXnXnXnXnXnXnXnXnXnXnXnXnXnXnXnXnXnXnXnXnXnXnX",
"nXnXnXnXnXnXnXnXnXnXnXnXnXnXnXnXnXnXnXnXnXnXnXnXD } .... .} $.%.+.O.O.[ { ( L p nXnXnXnXnXnXnXnXnXnXnXnXnXnXnXnXnXnXnXnXnXnXnXnX",
"nXnXnXnXnXnXnXnXnXnXnXnXnXnXnXnXnXnXnXnXnXQ m.b. .6.8.G._..XK.^ !.OXXX`.~.G.7.o.( ( S nXnXnXnXnXnXnXnXnXnXnXnXnXnXnXnXnXnXnXnXnX",
"nXnXnXnXnXnXnXnXnXnXnXnXnXnXnXnXnXnXnXl.v.$.8.G..X8XdXlXrXR.*.' .XcXcXzXkXgXuX6X[.p.1.) K = nXnXnXnXnXnXnXnXnXnXnXnXnXnXnXnXnXnX",
"nXnXnXnXnXnXnXnXnXnXnXnXnXnXnXnXnXc.B.$.u..XwXhXcXvXfX%X*.[ &.' `.zXjXjXjXkXkXzXxXgX9X^.7.H G nXnXnXnXnXnXnXnXnXnXnXnXnXnXnXnXnX",
"nXnXnXnXnXnXnXnXnXnXnXnXnXnXnX} B.$.f.oXdXxXkXxXkX=XF.| &.&.%.' `.zXkXjXjXjXjXjXjXkXkXxXeX X1.H S nXnXnXnXnXnXnXnXnXnXnXnXnXnXnX",
"nXnXnXnXnXnXnXnXnXnXnXnXnXnXB.l.5..XdXlXkXlXlXtXU. ...*.&.&.%.' `.zXjXjXjXjXjXjXjXjXjXjXkXxXyX~.T C * nXnXnXnXnXnXnXnXnXnXnXnXnX",
"nXnXnXnXnXnXnXnXnXnXnXnXs S.$.H.9XzXkXkXxXrXR. . .*.*.&.%.%.%.' `.zXjXjXjXjXjXjXjXjXjXjXjXkXzXbX3X3.b i nXnXnXnXnXnXnXnXnXnXnXnX",
"nXnXnXnXnXnXnXnXnXnXnXQ Z./ +XgXzXkXxXfX$Xn.X.*.*.*.&.&.%.%.%.Q `.zXjXjXjXjXjXjXjXjXjXjXjXjXfXkXlXpXp.b t nXnXnXnXnXnXnXnXnXnXnX",
"nXnXnXnXnXnXnXnXnXnX! Z.5.oXlXkXzXkX,XI.#.X...*.*.&.&.&.%.%.+.( `.zXjXjXjXjXjXjXjXjXjXjXjXjXjXjXjXzXhX~.b t nXnXnXnXnXnXnXnXnXnX",
"nXnXnXnXnXnXnXnXnX! Z.5.1XxXlXlXtXY.X.i.8X(.-.X.*.*.&.&.%.+.+.' `.zXjXjXjXjXjXjXjXjXjXjXjXjXjXjXjXjXkXxX].N i nXnXnXnXnXnXnXnXnX",
"nXnXnXnXnXnXnXnXD S.5.1XcXxXpXR.n.....i.gXkX3XJ.[  .&.%.+.+.+.L `.zXkXfXjXjXjXjXjXjXjXjXjXjXjXjXjXjXjXjXlX].v i nXnXnXnXnXnXnXnX",
"nXnXnXnXnXnXnXnXS./ oXvXjX$XU.b.n.x...J.iXkXlXdXXXq.[ %.+.+.+.L `.zXkXkXjXjXjXjXjXjXjXjXjXjXjXjXjXjXjXjXjXbXW.x * nXnXnXnXnXnXnX",
"nXnXnXnXnXnXnXS.z.+XcX,XU.b.l.b.x.x...i.aXkXjXkXlXyX[.@.] +.O.L `.kXkXfXjXjXjXjXjXjXjXjXjXjXjXjXjXjXjXjXjXzXsXr.e nXnXnXnXnXnXnX",
"nXnXnXnXnXnXz.c.!.tXR.v.v.n.n.n.n.n...i.iXkXjXjXjXlXkX9XK.o.] L `.zXkXkXjXjXjXjXjXjXjXjXjXjXjXjXjXjXjXjXkXfXzX0X:.r nXnXnXnXnXnX",
"nXnXnXnXnXnXS.z.P.B.v.m.m.n.n.x.x.x...i.iXkXkXkXjXjXkXkXhX;Xh.K `.zXkXjXjXjXjXjXjXjXjXjXjXjXjXjXjXjXjXjXjXjXjXxX Xl * nXnXnXnXnX",
"nXnXnXnXnXc.z.z.A.N.v.m.m.n.x.x.x.=...i.iXkXjXjXjXjXjXjXkXcXdXK.XXzXjXjXjXjXjXjXjXjXjXjXjXjXjXjXjXjXjXjXjXjXjXzXjXr.1 nXnXnXnXnX",
"nXnXnXnXnXS.F.+XP.c.v.n.n.n.x.x.=.=.=.i.iXkXjXjXkXjXjXkXzXrXT.L [.lXjXjXjXjXjXjXjXjXjXjXjXjXjXjXjXjXjXjXjXjXjXjXzX3Xn * nXnXnXnX",
"nXnXnXnXc.C.z.6XbX;XD.b.b.x.x.x.=.=. .i.iXkXjXjXkXkXzXiX%Xo.) G |.lXjXjXjXjXjXjXjXjXjXjXjXjXjXjXjXjXjXjXjXjXjXjXjXzXr.2 nXnXnXnX",
"nXnXnXnXS.B.z.2XzXlXiX{.F...n.x.=.*. .i.iXkXkXkXzXkX=X0.) o.^ K `.lXjXjXjXjXjXjXjXjXjXjXjXjXjXjXjXjXjXjXjXjXjXjXkXkX3X9 & nXnXnX",
"nXnXnXz.S.B.z.2XzXjXjXlXwX(.-...=.*. .i.iXkXlXzX7XD.( ] o._ ( P `.lXjXjXjXjXjXjXjXjXjXjXjXjXjXjXjXjXjXjXjXjXjXjXkXkXjX2.q nXnXnX",
"nXnXnXV.B.B.z.2XzXjXjXjXkXkX6XJ.&.X.| i.dXzXrXT.] ' O.O.o._ _ K `.zXjXjXjXjXjXjXjXjXjXjXjXjXjXjXjXjXjXjXjXjXjXjXjXjXcX].< nXnXnX",
"nXnXnXS.N.B.z.2XzXjXjXjXjXjXlXdX;Xq.| u.iX$X-.( [ O.O.o.o._ _ K `.zXjXjXjXjXjXjXjXjXjXjXjXjXjXjXjXjXjXjXjXjXjXjXjXjXzX0X9 @ nXnX",
"nXnX/ C.N.N.z.2XzXjXjXjXjXjXjXlXzXdX[.8.0.{ +.+.O.O.o.o.o._ _ P `.zXkXjXjXjXjXjXjXjXjXjXjXjXjXjXjXjXjXjXjXjXjXjXjXjXkXjX<.$ nXnX",
"nXnXl.A.N.N.#.2XzXjXjXjXjXjXjXkXzXtXY.i.K.@.] +.O.O.o.o._ _ ` G `.lXjXjXjXjXjXjXjXjXjXjXjXjXjXjXjXjXjXjXjXjXjXjXjXjXkXcXj.: nXnX",
"nXnXc.B.N.m.z.1XzXjXjXjXkXkXcXrX%X&.{ i.iX3Xh.' ] o._ o.` ` L G `.zXjXjXjXjXjXjXjXjXjXjXjXjXjXjXjXjXjXjXjXjXjXjXjXjXjXcX&X: nXnX",
"nXnXV.B.N.v.#.6XzXjXjXjXlXkX$X0.{ %.| u.dXxXdX-Xw.L ( _ ` ` ` G `.kXkXjXjXjXjXjXjXjXjXjXjXjXjXjXjXjXjXjXjXjXjXjXjXjXjXzX5X7 . nX",
"nXnXV.N.m.m.#.1XzXjXlXkX<XD.|  . .&.[ u.iXkXkXzXyX^.1.) ) ` R G `.zXjXjXjXjXjXjXjXjXjXjXjXjXjXjXjXjXjXjXjXjXjXjXjXjXkXkXeXM + nX",
"nXs B.l.v.v.z.1XzXzXrXY.X.X.*.&.&.%.[ u.iXkXjXkXkXlX8XK.K ) R G `.zXjXjXjXjXjXjXjXjXjXjXjXjXjXjXjXjXjXjXjXjXjXjXjXjXjXkXsX;.+ nX",
"nX~ c.G.D.l.$.6XjX%Xk.X.*.*.&.&.%.%.] u.iXkXkXjXjXjXlXhX;X7.Y G `.lXkXjXjXjXjXjXjXjXjXjXjXjXjXjXjXjXjXjXjXjXjXjXkXkXjXkXfX>.+ nX",
"nX/ c.OXpX}.q.P.U.X.....*.*.&.%.%.%.| u.sXkXjXjXjXjXjXlXlXiXXX1.`.lXjXjXjXjXjXjXjXjXjXjXjXjXjXjXjXjXjXjXjXjXjXzXzXjXjXkXkX>.+ nX",
"nX~ c.OXzXhXqXI.} *.=.=.*.&.&.%.%.+.] u.sXkXjXjXjXjXjXjXkXcXrX7.XXkXjXjXjXjXjXjXjXjXjXjXjXjXjXjXjXjXjXjXkXkXcXsXQ.).kXkXkX>.+ nX",
"nX~ c.OXzXkXkXgX;XF. .X.&.&.&.%.+.+.] u.iXkXjXjXjXjXkXlXfX#XE A `.zXkXjXjXjXjXjXjXjXjXjXjXjXjXjXjXjXjXkXxXkX&X;.O a.kXlXjX>.+ nX",
"nXs l.XXzXkXjXkXlXiX{.q.|  .%.%.+.+.] u.dXkXjXjXkXlXkX=X9.J Y A _.zXjXjXjXjXjXjXjXjXjXjXjXjXjXjXjXjXxXcX5X2., < : a.jXkXiXh + nX",
"nXnXk. XzXkXjXjXjXkXlXqX(.@.[ +.+.O.] u.dXkXjXkXzX7Xq.H H R T A `.lXjXjXjXjXjXjXjXjXjXjXjXjXjXjXkXcXeXj.2 < 7 7 : a.bXkXpX0 + nX",
"nXnXb.^.kXjXjXjXjXjXjXkXkX3XJ.] ] O.] u.iXzXcXrXL.K H R R Y Y A `.kXkXjXjXjXjXjXjXjXjXjXjXjXjXcXsX].u < 8 8 7 7 : a.kXcX5X3 . nX",
"nXnXl.K.gXlXjXjXjXjXjXjXkXzXgXOXq.( ) u.jXkX%X9.H ` ` Y Y T U A _.zXjXjXjXjXjXjXjXjXjXjXjXxXzX>X,.< 1 9 8 8 7 7 : a.kXcX*X; . nX",
"nXnX} F.uXkXjXjXjXjXjXjXjXjXkXzXuX[.^ 8.>Xw.H K R ` Y Y Y Y T c `.zXjXjXjXjXjXjXjXjXjXzXxX5Xr.2 1 9 9 8 8 7 7 7 : a.hXcXQ.# nXnX",
"nXnXD z.3XzXjXjXjXjXjXjXjXjXjXkXlXlX9X~.L P ) ` ` R R Y Y U T A _.zXkXjXjXjXjXjXjXkXcXrX].:., 1 9 9 9 8 8 7 7 7 > a.jXlX>.# nXnX",
"nXnXnXn.{.lXkXjXjXjXjXjXjXjXjXjXjXjXkXkX3Xh.G H R R Y Y Y U U c `.lXjXjXjXjXjXjXcXfX@XV g OXW.u 2 8 8 7 7 7 7 7 ; a.zXeX6 @ nXnX",
"nXnXnXk.J.dXkXjXjXjXjXjXjXjXjXjXjXjXjXkXlXgXXX7.J H Y Y Y U U c _.zXkXjXkXkXzXzX:X2.2 n i wXlX;Xe.2 < 0 7 7 6 , - a.cX X- . nXnX",
"nXnXnXQ -.8XkXkXjXjXjXjXjXjXjXjXjXjXjXjXjXkXlXyX^.1.J Y U U U c _.zXjXjXkXcXeXg.l l m n g 9XzXxXdX Xg 4 , 7 6 6 ; a.xX<.# nXnXnX",
"nXnXnXnX=.[.lXkXjXjXjXjXjXjXjXjXjXjXjXjXjXjXjXkXkX9Xd.U F U U v `.zXkXcXpX/.m l m n n l g 9XzXjXkXxXuXW.u ; 4 4 - s.qX3 @ nXnXnX",
"nXnXnXnX} q.yXkXjXjXjXjXjXjXjXjXjXjXjXjXjXjXjXjXkXlXhX;X7.v B c _.vXjX&XW x m m m n n 1 g 9XzXfXjXkXkXxX8Xt.q ; % E.E.%   nXnXnX",
"nXnXnXnXp  .XXlXjXjXjXjXjXjXjXjXjXjXjXjXjXjXjXjXjXjXjXxXiX X1.z `.7X3.z x x m m m n y n g 9XzXjXjXjXjXjXxXhXOXk - k 6 @ nXnXnXnX",
"nXnXnXnXnX[ 0.yXkXjXjXjXjXjXjXjXjXjXjXjXjXjXjXjXjXjXjXjXkXxXuXd.4.x x V V V m m m n y 1 f 9XkXjXjXjXjXjXjXkXlXlXQ.% 5   nXnXnXnX",
"nXnXnXnXnXnX .^.lXkXjXjXjXjXjXjXjXjXjXjXjXjXjXjXjXjXjXkXxXsX#XW !.d.V z V m m m y n y 9 f 9XxXjXjXjXjXjXkXxXlX*Xh 3 @ nXnXnXnXnX",
"nXnXnXnXnXnXQ %.3XxXkXjXjXjXjXjXjXjXjXjXjXjXjXjXjXjXxXkX>X1.x z |.lXoX1.w z m m y n n 9 f 9XkXjXjXkXjXlXcX5X>.- - % nXnXnXnXnXnX",
"nXnXnXnXnXnXnX] q.iXzXjXjXjXjXjXjXjXjXjXjXjXjXkXxXxX7Xg.v c C x _.cXlXpX'.:.1 n n y 9 1 f 9XzXkXjXkXvXeXt.3 - 5 3 . nXnXnXnXnXnX",
"nXnXnXnXnXnXnXd | L.gXlXjXjXjXjXjXjXjXjXjXjXkXcXrXL.F v B B B V _.lXjXzXzXwXE.u 2 y 9 8 f 9XkXkXcXjXQ.j > - 3 5 @ nXnXnXnXnXnXnX",
"nXnXnXnXnXnXnXnXp ] (.hXkXjXjXjXjXjXjXjXjXxXfX@XT v C C B B B e _.zXjXjXjXzXlX2Xe.2 2 7 f 9XvXkX-Xh > 4 4 3 3 % nXnXnXnXnXnXnXnX",
"nXnXnXnXnXnXnXnXnXD ] {.kXlXjXjXjXjXjXkXlX=X9.b C U C B B B N z _.lXjXjXjXjXjXzXjXXX4.: u uX0Xy.; ; 4 3 4 3 % nXnXnXnXnXnXnXnXnX",
"nXnXnXnXnXnXnXnXnXnXP o.[.kXkXjXjXjXlXeXg.F F U U C C B B N N e _.zXjXjXjXjXjXjXkXcXuX).k y.7 > 6 6 4 4 3 % X nXnXnXnXnXnXnXnXnX",
"nXnXnXnXnXnXnXnXnXnXnXS ) /.dXzXkXjXlX0X7.F C U U C B C B N N e _.zXjXjXjXjXjXjXjXjXkXlXwXs.: ; 6 4 4 4 % X nXnXnXnXnXnXnXnXnXnX",
"nXnXnXnXnXnXnXnXnXnXnXnXp ) h.0XxXkXjXkXsXXX1.c C C B N N N N e _.xXjXjXjXjXjXjXjXjXjXjXlXkX4Xe.q 3 3 % nXnXnXnXnXnXnXnXnXnXnXnX",
"nXnXnXnXnXnXnXnXnXnXnXnXnX= K 9.>XgXzXjXkXxXyX~.W v B N N N m e _.zXkXjXjXjXjXjXjXjXjXjXjXcXvX-Xj 3 @ nXnXnXnXnXnXnXnXnXnXnXnXnX",
"nXnXnXnXnXnXnXnXnXnXnXnXnXnXnXS H h.5XkXxXjXlXlX8Xd.V z N V V e _.zXjXjXjXjXjXjXjXjXkXzXcX0Xt.6 % o nXnXnXnXnXnXnXnXnXnXnXnXnXnX",
"nXnXnXnXnXnXnXnXnXnXnXnXnXnXnXnX= A Y h.:XkXcXlXcXbX;X3.z z V w _.zXjXjXjXjXjXjXlXcXlX7Xt.0 - @ nXnXnXnXnXnXnXnXnXnXnXnXnXnXnXnX",
"nXnXnXnXnXnXnXnXnXnXnXnXnXnXnXnXnXnXi c Y 9.@X0XfXxXvXhX X4.l r _.xXkXkXxXcXcXzXeX&Xy.7 ; @   nXnXnXnXnXnXnXnXnXnXnXnXnXnXnXnXnX",
"nXnXnXnXnXnXnXnXnXnXnXnXnXnXnXnXnXnXnXnX= t v U 3.j.>XtXpX0XW.t _.kXsXpX7X-XQ.2.;.; > @ X nXnXnXnXnXnXnXnXnXnXnXnXnXnXnXnXnXnXnX",
"nXnXnXnXnXnXnXnXnXnXnXnXnXnXnXnXnXnXnXnXnXnXnX* t e x N Z 4.2.Z :.2.,.V 9 < , q @ o nXnXnXnXnXnXnXnXnXnXnXnXnXnXnXnXnXnXnXnXnXnX",
"nXnXnXnXnXnXnXnXnXnXnXnXnXnXnXnXnXnXnXnXnXnXnXnXnXnXnX& * $ * $ * $ $ @ @   nXnXnXnXnXnXnXnXnXnXnXnXnXnXnXnXnXnXnXnXnXnXnXnXnXnX",
"nXnXnXnXnXnXnXnXnXnXnXnXnXnXnXnXnXnXnXnXnXnXnXnXnXnXnXnXnXnXnXnXnXnXnXnXnXnXnXnXnXnXnXnXnXnXnXnXnXnXnXnXnXnXnXnXnXnXnXnXnXnXnXnX"
};
