/* XPM */
static char *kusacoin16[] = {
/* columns rows colors chars-per-pixel */
"16 16 170 2 ",
"   c #032C16",
".  c #00671D",
"X  c #0B6D2E",
"o  c #147422",
"O  c #066E31",
"+  c #1F613F",
"@  c #1D7730",
"#  c #40664E",
"$  c #476C52",
"%  c #4A6E5D",
"&  c #4D7953",
"*  c #57755A",
"=  c #2A851B",
"-  c #258129",
";  c #338631",
":  c #6CB21F",
">  c #7BBC1B",
",  c #46922F",
"<  c #509E2F",
"1  c #449033",
"2  c #559D30",
"3  c #718F3B",
"4  c #5AA428",
"5  c #5EA235",
"6  c #6EB02F",
"7  c #6BAB32",
"8  c #7BBA38",
"9  c #2C8441",
"0  c #378B5E",
"q  c #449048",
"w  c #52984E",
"e  c #559A5E",
"r  c #7E9F41",
"t  c #78905B",
"y  c #6EAB40",
"u  c #75AF42",
"i  c #70AB44",
"p  c #79B145",
"a  c #66A653",
"s  c #598363",
"d  c #5B856E",
"f  c #6B8D63",
"g  c #769265",
"h  c #799663",
"j  c #628E76",
"k  c #658B78",
"l  c #699173",
"z  c #609C7D",
"x  c #799C74",
"c  c #7DAF6C",
"v  c #6EA570",
"b  c #64A178",
"n  c #82B843",
"m  c #8ABC48",
"M  c #8CBA5F",
"N  c #94B55F",
"B  c #829964",
"V  c #80966A",
"C  c #8AAA6C",
"Z  c #87BF62",
"A  c #8DAC76",
"S  c #80B374",
"D  c #8FBA72",
"F  c #81B579",
"G  c #90BD7F",
"H  c #9BC857",
"J  c #9EC65E",
"K  c #9EC36F",
"L  c #A3CF61",
"P  c #A0CA76",
"I  c #A6C578",
"U  c #B1DB7C",
"Y  c #72AC86",
"T  c #7FB288",
"R  c #7DB192",
"E  c #97BD84",
"W  c #8FBF91",
"Q  c #89B79F",
"!  c #92B992",
"~  c #90B69B",
"^  c #A0B882",
"/  c #9CC281",
"(  c #9FC391",
")  c #9AC799",
"_  c #A7CC86",
"`  c #A5CB8C",
"'  c #ACD08E",
"]  c #B2D494",
"[  c #B6D59C",
"{  c #A3C8AF",
"}  c #B7CDA2",
"|  c #BBD1AF",
" . c #A1C5B1",
".. c #A6CCBA",
"X. c #ACC9B9",
"o. c #B5CDBC",
"O. c #AFD0B2",
"+. c #AED0B5",
"@. c #B8D4B5",
"#. c #BBD8B2",
"$. c #BBD9B7",
"%. c #BED9B6",
"&. c #BED6BE",
"*. c #C5DBBE",
"=. c #B0D4C2",
"-. c #BAD2C6",
";. c #BDD9C1",
":. c #C1DDCF",
">. c #C4DFCD",
",. c #CBDDCE",
"<. c #CEDFD3",
"1. c #CDDED4",
"2. c #CEDFD4",
"3. c #CDDFD8",
"4. c #CEE2D1",
"5. c #CEE1D8",
"6. c #CAE4D9",
"7. c #D2E4D3",
"8. c #D1E0D4",
"9. c #D1E1D6",
"0. c #D0E1D7",
"q. c #D7EAD0",
"w. c #D0E0D8",
"e. c #D1E0D8",
"r. c #D3E2D9",
"t. c #D3E2DD",
"y. c #D4E3DD",
"u. c #D9EDDF",
"i. c #DBE8E2",
"p. c #E1EFE7",
"a. c #E1EFE9",
"s. c #E0EFEC",
"d. c #E1F0E9",
"f. c #E3F2E9",
"g. c #E3ECF0",
"h. c #E5EDF3",
"j. c #E5F6F2",
"k. c #E8F0F5",
"l. c #E9F4F4",
"z. c #EAF5F5",
"x. c #EAF5F6",
"c. c #EBF5F6",
"v. c #ECF6F7",
"b. c #EBF8F7",
"n. c #EBFAF7",
"m. c #E9F1F8",
"M. c #EDF7F8",
"N. c #EFF7F9",
"B. c #EEF6FC",
"V. c #EEF8FA",
"C. c #EEF9FB",
"Z. c #EEF8FC",
"A. c #F1F7FE",
"S. c #F1F6FF",
"D. c #F1FAFD",
"F. c #F2FAFD",
"G. c #F0F9FE",
"H. c #F1FAFE",
"J. c #F3FBFE",
"K. c #F2FAFF",
"L. c #F4FBFF",
"P. c #F4FFFF",
"I. c #F5FFFF",
"U. c #F6FEFF",
"Y. c #F7FEFF",
"T. c #F7FFFF",
"R. c #F8FFFF",
"E. c #FBFFFF",
"W. c white",
"Q. c None",
/* pixels */
"Q.Q.Q.Q.Q.Q.V C A g Q.Q.Q.Q.Q.Q.",
"Q.Q.Q.Q.t | ' p ,.a.&.f Q.Q.Q.Q.",
"Q.Q.Q.} q.P : 7 r.D.H.I.O.Q.Q.Q.",
"Q.Q.I U m 8.` i 9.V.l.z.R.+.Q.Q.",
"Q.3 L > n m.L.( <.V.l.l.z.T.l Q.",
"Q.J g.[ M %.Z 5 0.C.l.l.l.F.:.Q.",
"r H S.f./ D 4 2 e.C.l.l.l.v.j.# ",
"N K ] 8 u h.4.c 2.V.l.l.M.J.b.d ",
"^ i._ 6 y k.u.S 1.V.c.L.s.Y  .k ",
"B p.K.7.E G < , w.Y.N.{ 9 . Q % ",
"Q.*.G.Z.B.@.a 1 y.>.e ~ b X z Q.",
"Q.h P.x.z.L.A.! v - o -.W...+ Q.",
"Q.Q.#.U.v.d.) w o.T @ X.=.0 Q.Q.",
"Q.Q.Q.$.I.F = ; t.E.3.R O   Q.Q.",
"Q.Q.Q.Q.x ;.W q 5.n.6.j Q.Q.Q.Q.",
"Q.Q.Q.Q.Q.Q.* & s $ Q.Q.Q.Q.Q.Q."
};
