/* XPM */
static char *kusacoin32[] = {
/* columns rows colors chars-per-pixel */
"32 32 203 2 ",
"   c #062D17",
".  c #0B371D",
"X  c #152E22",
"o  c #0A3620",
"O  c #153E25",
"+  c #315E17",
"@  c #056C1D",
"#  c #1B582E",
"$  c #115731",
"%  c #07562D",
"&  c #2B4D30",
"*  c #224829",
"=  c #046C2C",
"-  c #046A27",
";  c #0D712A",
":  c #0E7223",
">  c #167629",
",  c #1D7B2B",
"<  c #157521",
"1  c #076833",
"2  c #116F32",
"3  c #087133",
"4  c #157532",
"5  c #1B7932",
"6  c #31652B",
"7  c #247F2B",
"8  c #377029",
"9  c #2D7E31",
"0  c #2B7D3F",
"q  c #29682E",
"w  c #456A14",
"e  c #57781A",
"r  c #447B2E",
"t  c #157741",
"y  c #297E51",
"u  c #3B7E52",
"i  c #337B55",
"p  c #2E7548",
"a  c #298329",
"s  c #3B8C2C",
"d  c #34892C",
"f  c #3B9027",
"g  c #298234",
"h  c #328331",
"j  c #3A8E32",
"k  c #358A34",
"l  c #61881E",
"z  c #5CA61E",
"x  c #418D28",
"c  c #59862A",
"v  c #4A9A24",
"b  c #49952A",
"n  c #4C9A2E",
"m  c #569C2B",
"M  c #448E32",
"N  c #4E8638",
"B  c #489734",
"V  c #4A9932",
"C  c #539B33",
"Z  c #519731",
"A  c #538434",
"S  c #699636",
"D  c #6A9027",
"F  c #5AA429",
"G  c #5CA532",
"H  c #65AB2C",
"J  c #69AE2C",
"K  c #7AA627",
"L  c #6CB12A",
"P  c #73B32B",
"I  c #7CBB2E",
"U  c #74B726",
"Y  c #64A532",
"T  c #68A634",
"R  c #7EA731",
"E  c #6EB132",
"W  c #72B332",
"Q  c #7BB834",
"!  c #318141",
"~  c #2E8351",
"^  c #3F805A",
"/  c #498B43",
"(  c #518D44",
")  c #41904B",
"_  c #55974B",
"`  c #42825B",
"'  c #448853",
"]  c #538F53",
"[  c #4E9055",
"{  c #5C915C",
"}  c #699E43",
"|  c #789E4F",
" . c #6D9D57",
".. c #5FA459",
"X. c #6AA448",
"o. c #73A94E",
"O. c #75AA4A",
"+. c #7CB14B",
"@. c #74A650",
"#. c #79A857",
"$. c #7FB859",
"%. c #498A65",
"&. c #589A64",
"*. c #5D9D7C",
"=. c #4E976A",
"-. c #669B79",
";. c #739C7D",
":. c #73A671",
">. c #71AA71",
",. c #83BD29",
"<. c #82BF20",
"1. c #81AC34",
"2. c #84BF33",
"3. c #8ABD3C",
"4. c #8AC628",
"5. c #90CA2A",
"6. c #98D22B",
"7. c #88C130",
"8. c #90C63B",
"9. c #81AF4A",
"0. c #80BD45",
"q. c #90BB42",
"w. c #81AC50",
"e. c #8CAD5F",
"r. c #88B658",
"t. c #91B55F",
"y. c #86AB6A",
"u. c #91B567",
"i. c #8AB87D",
"p. c #87B175",
"a. c #97B774",
"s. c #87C044",
"d. c #91C043",
"f. c #93C55F",
"g. c #9BC374",
"h. c #9EC57B",
"j. c #97C775",
"k. c #A2C17C",
"l. c #A9D279",
"z. c #74AB82",
"x. c #7CB081",
"c. c #7BB295",
"v. c #82A78E",
"b. c #84AB8B",
"n. c #88B78B",
"m. c #85A992",
"M. c #89BB9C",
"N. c #82B897",
"B. c #93B79E",
"V. c #93B287",
"C. c #A2BE84",
"Z. c #A7BE8C",
"A. c #A9BF94",
"S. c #89BBA1",
"D. c #93C38B",
"F. c #9CC38E",
"G. c #95C592",
"H. c #A4C18B",
"J. c #B8DA97",
"K. c #B4CD99",
"L. c #9CC4AA",
"P. c #AAC5A8",
"I. c #B6CCAC",
"U. c #B9DAA8",
"Y. c #BBC7B9",
"T. c #BAD3BA",
"R. c #B0D2BA",
"E. c #A4CAB7",
"W. c #C3DBBB",
"Q. c #BDCEC5",
"!. c #B7CFC0",
"~. c #BED1C3",
"^. c #BDD7C6",
"/. c #C0CFC3",
"(. c #C2D1C4",
"). c #C2D0CA",
"_. c #C6DAC8",
"`. c #CEDED2",
"'. c #C5DDD6",
"]. c #D1DCDC",
"[. c #C5E0C2",
"{. c #CFE6C7",
"}. c #C8E2D5",
"|. c #D3E3DB",
" X c #D5EADB",
".X c #D2EAC3",
"XX c #DAE6E3",
"oX c #DEE7EB",
"OX c #DFE8ED",
"+X c #D9E8E4",
"@X c #E1EAED",
"#X c #E2F0EB",
"$X c #E2F1E4",
"%X c #E5EDF3",
"&X c #E3E8F7",
"*X c #E6F1F1",
"=X c #E9F4F4",
"-X c #EDF5FB",
";X c #EFF9FC",
":X c #F2F6FE",
">X c #F2FAFE",
",X c #FCFFFF",
"<X c None",
/* pixels */
"<X<X<X<X<X<X<X<X<X<X<X<X<X<X<X<X<X<X<X<X<X<X<X<X<X<X<X<X<X<X<X<X",
"<X<X<X<X<X<X<X<X<X<X<Xw c @.y.S e.y. .A + <X<X<X<X<X<X<X<X<X<X<X",
"<X<X<X<X<X<X<X<X<XD u.I.XX`.g.T ).:X%X XT.i.N <X<X<X<X<X<X<X<X<X",
"<X<X<X<X<X<X<Xl t./.-X=XJ.Q L H /.>X=X-X>X-X|.i.8 <X<X<X<X<X<X<X",
"<X<X<X<X<X<XK A.&X>XU.s.P P W Y (.>X=X=X=X=X-X-XT./ <X<X<X<X<X<X",
"<X<X<X<X<X1.Y.:X.Xg.u.U P W E Y /.;X=X=X=X=X=X=X>X|._ <X<X<X<X<X",
"<X<X<X<X1.Y.$Xl.I 9.OX_.r.J J Y (.;X=X=X=X=X=X=X=X>X|./ <X<X<X<X",
"<X<X<XD Z.J.8.,.7.w.oX>X*XP.O.m /.>X=X=X=X=X=X=X=X=X>X^.q <X<X<X",
"<X<X<Xq.d.4.7.2.I w.@X=X=X;X%Xp.T.-X=X=X=X=X=X=X=X=X=X>Xn.<X<X<X",
"<X<X1.k.K.3.,.7.I w.@X=X;X=XU.X./.-X=X=X=X=X=X=X=X=X=X=X+X! <X<X",
"<X<X6.k.-X].h.I U w.%X>X_.r.F m /.:X=X=X=X=X=X=X=X=X=X=X>XN.<X<X",
"<Xe 6.C.-X-X-X(.t.#._.j.H F Y C Q.>X=X=X=X=X=X=X=X=X=X=X>X}.# <X",
"<XK 5.C.-X=X=X,X+Xu.@.F H Y G Z /.;X=X=X=X=X=X=X=X=X=X=X=X=X^ <X",
"<X,.4.C.-X-X-XU.s.o.].F.Y F G V Q.>X=X=X=X=X=X=X=X=X=X=X=X>X*.<X",
"<X,.<.C.:X{.f.L L @.%X;X`.p.n b Q.;X=X=X=X=X=X=X=X=X=X=X=X>Xc.<X",
"<Xe.k.a.l.Q P W E o.OX=X;X-X~. .Q.;X=X=X=X=X=X=X=X=X=X>X=X>XN.* ",
"<Xa.-X_.r.P P W J @.OX;X=X>X X:.Q.;X=X=X=X=X=X=X=X>X-XL.-.:XS.O ",
"<Xu.-X;X%XI.+.J H o.OX;X$XF.C x Q.>X=X=X=X=X=X;X>X_.&.- u :Xc.<X",
"<Xw.%X=X=X>XoXF.Y X.OXU.X.v n M Q.;X=X=X*X=X>XXX>.5 > ; ` :X*.<X",
"<XS XX;X=X=X-X-X}.V.#.v n C B M Q.;X=X=X>X=XL.g ; 5 4 3 ^ =Xi <X",
"<Xw W.>X*X=X=X=X-X-XT.#.b n b M Q.>X-X;XR.^ ;.B.0 3 4 = ` '.$ <X",
"<X<Xh.-X=X=X=X=X=X=X-X%XP._ f j ~.,X}.>.a < m.,X].-.2 - %.c.  <X",
"<X<XS |.-X=X=X=X=X=X=X-X>XXXn.B P.n.k a a > b.>X>X:X!.%.i p <X<X",
"<X<X<XF.-X=X=X=X=X=X=X=X=X>X:Xb.{ 7 a g g > c.>X=X=X,X].y o <X<X",
"<X<X<Xc W.;X=X=X=X=X=X-X>X^...d Q.T.[ , 5 > v.:X>X#Xc.t % <X<X<X",
"<X<X<X<XX.|.;X=X=X=X>X X>.s d h Q.,X@XB.p @ m.,XE.~ - 1 <X<X<X<X",
"<X<X<X<X<Xo. X>X=X@XD.B f M j h Q.-X=X,X X-.-.=.= = 1 X <X<X<X<X",
"<X<X<X<X<X<X} _.>X%Xn.M f j k h Q.-X=X=X;X>X^.=.3 2 X <X<X<X<X<X",
"<X<X<X<X<X<X<Xr F.#X,X}.:.d a h Q.;X=X=X;X>X;Xc.$ <X<X<X<X<X<X<X",
"<X<X<X<X<X<X<X<X<X( G. X-X~.&.h ).,X>X-X}.M.p . <X<X<X<X<X<X<X<X",
"<X<X<X<X<X<X<X<X<X<X<X6 ] x.n.' z.M.-.' #   <X<X<X<X<X<X<X<X<X<X",
"<X<X<X<X<X<X<X<X<X<X<X<X<X<X<X& * <X<X<X<X<X<X<X<X<X<X<X<X<X<X<X"
};
